<svg width="17" height="10" viewBox="0 0 17 10" fill="none" xmlns="http://www.w3.org/2000/svg">
<path d="M8.24244 2.91599C7.57407 3.10799 7.11788 3.25199 6.46012 3.44399C6.30099 3.49199 6.29038 3.50399 6.15246 3.32399C5.99333 3.11999 5.87663 2.98799 5.65384 2.86799C4.98547 2.49599 4.33832 2.60399 3.7336 3.04799C3.01219 3.57599 2.64087 4.35599 2.65148 5.32799C2.66209 6.28799 3.24558 7.07999 4.0837 7.21199C4.80511 7.31999 5.40983 7.03199 5.88723 6.41999C5.98272 6.28799 6.06759 6.14399 6.17368 5.97599C5.79175 5.97599 5.31435 5.97599 4.12614 5.97599C3.90335 5.97599 3.8503 5.81999 3.92456 5.61599C4.06248 5.24399 4.3171 4.61999 4.46562 4.30799C4.49745 4.23599 4.57171 4.11599 4.73085 4.11599C5.27191 4.11599 7.26641 4.11599 8.59254 4.11599C8.57132 4.43999 8.57132 4.76399 8.52889 5.08799C8.41219 5.95199 8.12574 6.74399 7.65895 7.43999C6.89509 8.57999 5.89784 9.28799 4.63537 9.47999C3.59568 9.63599 2.63026 9.40799 1.78154 8.68799C0.996468 8.01599 0.550889 7.12799 0.434189 6.02399C0.296272 4.71599 0.635761 3.53999 1.33596 2.50799C2.0892 1.39199 3.08645 0.683991 4.30649 0.431991C5.30374 0.227991 6.25855 0.359991 7.11788 1.01999C7.68016 1.43999 8.08331 2.01599 8.34853 2.71199C8.41219 2.81999 8.36975 2.87999 8.24244 2.91599Z" fill="#00ACD7"/>
<path d="M11.754 9.55196C10.7886 9.52796 9.90805 9.21596 9.16542 8.49596C8.53949 7.88396 8.14695 7.10396 8.01965 6.17996C7.82868 4.82396 8.15756 3.62396 8.87898 2.55596C9.65344 1.40396 10.587 0.803957 11.8495 0.551957C12.9316 0.335957 13.9501 0.455957 14.8731 1.16396C15.7112 1.81196 16.231 2.68796 16.369 3.83996C16.5493 5.45996 16.1356 6.77996 15.1489 7.90796C14.4487 8.71196 13.5894 9.21596 12.6027 9.44396C12.3163 9.50396 12.0299 9.51596 11.754 9.55196ZM14.279 4.70396C14.2684 4.54796 14.2684 4.42796 14.2472 4.30796C14.0562 3.11996 13.0908 2.44796 12.0829 2.71196C11.0963 2.96396 10.4597 3.67196 10.2263 4.79996C10.0354 5.73596 10.4385 6.68396 11.2024 7.06796C11.7859 7.35596 12.3694 7.31996 12.9316 6.99596C13.7697 6.50396 14.2259 5.73596 14.279 4.70396Z" fill="#00ACD7"/>
</svg>
