<svg width="138" height="22" viewBox="0 0 138 22" fill="none" xmlns="http://www.w3.org/2000/svg">
<g clip-path="url(#clip0_0_784)">
<path d="M29.6727 5.00148C28.5581 5.00148 28.2359 5.48298 28.2359 6.54498V8.30673H31.2088L30.9108 11.153H28.237V19.7907H24.6692V11.153H22.2657V8.30673H24.6692V6.59335C24.6692 3.72235 25.8577 2.20586 29.1737 2.20586C29.8686 2.20427 30.5629 2.24447 31.2527 2.32623V5.00485L29.6727 5.00148Z" fill="#4267B2"/>
<path d="M31.456 13.6865C31.456 10.478 33.0164 8.06152 36.2862 8.06152C38.0695 8.06152 39.1587 8.95477 39.6796 10.064V8.30677H43.0973V19.7908H39.6796V18.0538C39.1841 19.1641 38.0695 20.0326 36.2862 20.0326C33.0164 20.0326 31.456 17.6195 31.456 14.4076V13.6865ZM35.0226 14.4594C35.0226 16.1716 35.666 17.3056 37.3257 17.3056C38.7879 17.3056 39.5306 16.2684 39.5306 14.6281V13.475C39.5306 11.8348 38.7879 10.7975 37.3257 10.7975C35.666 10.7975 35.0226 11.9315 35.0226 13.6438V14.4594Z" fill="#4267B2"/>
<path d="M50.5285 8.06482C51.9145 8.06482 53.2278 8.35507 53.9462 8.83657L53.1539 11.2981C52.4107 10.9534 51.5988 10.7721 50.7757 10.7671C48.8434 10.7671 48.0037 11.8527 48.0037 13.7112V14.3862C48.0037 16.2447 48.8457 17.3303 50.7757 17.3303C51.5988 17.3253 52.4107 17.144 53.1539 16.7993L53.9462 19.2597C53.2278 19.7423 51.9157 20.0326 50.5285 20.0326C46.3417 20.0326 44.4348 17.8366 44.4348 14.3142V13.7832C44.4348 10.2608 46.3417 8.06482 50.5285 8.06482Z" fill="#4267B2"/>
<path d="M54.4163 14.4875V13.475C54.4163 10.2181 56.3232 8.07495 60.2132 8.07495C63.8792 8.07495 65.4893 10.2462 65.4893 13.4311V15.2648H57.9817C58.0568 16.8331 58.7752 17.5328 60.7538 17.5328C62.0924 17.5328 63.5038 17.2673 64.5445 16.8331L65.197 19.2124C64.2557 19.6962 62.3234 20.0573 60.6152 20.0573C56.1002 20.0562 54.4163 17.8624 54.4163 14.4875ZM57.9829 12.9912H62.2934V12.7021C62.2934 11.4477 61.7736 10.4521 60.2144 10.4521C58.6031 10.4532 57.9829 11.4432 57.9829 12.9867V12.9912Z" fill="#4267B2"/>
<path d="M78.7106 14.411C78.7106 17.6195 77.1259 20.036 73.8596 20.036C72.0762 20.036 70.8381 19.1675 70.3426 18.0571V19.7941H66.9746V2.53998L70.5412 2.22498V9.89748C71.061 8.88497 72.201 8.06372 73.8607 8.06372C77.1305 8.06372 78.7117 10.4768 78.7117 13.6887L78.7106 14.411ZM75.1439 13.6145C75.1439 11.9979 74.5006 10.7919 72.7912 10.7919C71.3289 10.7919 70.5366 11.8044 70.5366 13.4457V14.6517C70.5366 16.292 71.3289 17.3056 72.7912 17.3056C74.5006 17.3056 75.1439 16.0996 75.1439 14.483V13.6145Z" fill="#4267B2"/>
<path d="M79.9037 14.3378V13.7596C79.9037 10.4532 81.836 8.06482 85.7745 8.06482C89.7131 8.06482 91.6466 10.4532 91.6466 13.7596V14.3378C91.6466 17.6431 89.7143 20.0326 85.7757 20.0326C81.8371 20.0326 79.9037 17.6431 79.9037 14.3378ZM88.0788 13.5177C88.0788 11.9978 87.4343 10.7918 85.7688 10.7918C84.1032 10.7918 83.4645 11.9978 83.4645 13.5177V14.5797C83.4645 16.0996 84.109 17.3056 85.7688 17.3056C87.4285 17.3056 88.0788 16.0996 88.0788 14.5797V13.5177Z" fill="#4267B2"/>
<path d="M92.8328 14.3378V13.7596C92.8328 10.4532 94.7651 8.06482 98.7036 8.06482C102.642 8.06482 104.575 10.4532 104.575 13.7596V14.3378C104.575 17.6431 102.642 20.0326 98.7036 20.0326C94.7651 20.0326 92.8328 17.6431 92.8328 14.3378ZM101.008 13.5177C101.008 11.9978 100.363 10.7918 98.7036 10.7918C97.0439 10.7918 96.4006 11.9978 96.4006 13.5177V14.5797C96.4006 16.0996 97.0439 17.3056 98.7036 17.3056C100.363 17.3056 101.008 16.0996 101.008 14.5797V13.5177Z" fill="#4267B2"/>
<path d="M109.479 13.7832L112.996 8.30672H116.785L113.095 13.9767L116.934 19.7907H113.145L109.479 14.1657V19.7907H105.911V2.53998L109.479 2.22498V13.7832Z" fill="#4267B2"/>
</g>
<defs>
<clipPath id="clip0_0_784">
<rect width="95" height="18" fill="white" transform="translate(22 2)"/>
</clipPath>
</defs>
</svg>
