<svg width="77" height="24" viewBox="0 0 77 24" fill="none" xmlns="http://www.w3.org/2000/svg">
<path d="M25.6311 13.3613L24.2769 9.18507C24.2775 9.18695 24.2777 9.1889 24.2783 9.19078C24.2776 9.1886 24.2772 9.18642 24.2766 9.18424L24.2766 9.18387V9.18372L21.5881 0.896269C21.441 0.459664 21.0363 0.166641 20.5724 0.170322C20.1071 0.172727 19.7136 0.460039 19.5696 0.902655L17.0177 8.76905H8.96558L6.40891 0.902204C6.26514 0.46004 5.87155 0.172727 5.40631 0.170322H5.40068C4.94257 0.170322 4.53713 0.461542 4.38847 0.903031L1.70739 9.18304L1.70701 9.18409V9.18432C1.70634 9.18642 1.70604 9.18853 1.70536 9.19063C1.70596 9.18875 1.70619 9.1868 1.70679 9.18492L0.347522 13.3614C0.247489 13.6676 0.247066 13.9976 0.346314 14.304C0.445562 14.6105 0.639361 14.8775 0.899813 15.0666L12.6363 23.6047C12.638 23.606 12.64 23.6068 12.6417 23.6081C12.6467 23.6117 12.6516 23.6153 12.6567 23.6187C12.6519 23.6155 12.6474 23.612 12.6427 23.6087L12.6426 23.6086C12.6433 23.6092 12.6442 23.6096 12.6451 23.6101L12.6471 23.6113L12.6474 23.6115C12.6656 23.6241 12.6844 23.6357 12.7039 23.6463C12.7066 23.6478 12.709 23.6497 12.7117 23.6511L12.7119 23.6512C12.7135 23.652 12.715 23.6531 12.7167 23.6539C12.7179 23.6545 12.7193 23.6549 12.7205 23.6555C12.7214 23.6559 12.7224 23.6562 12.7233 23.6566C12.7254 23.6576 12.7278 23.6583 12.73 23.6594C12.7402 23.6643 12.751 23.6683 12.7615 23.6726C12.7713 23.6766 12.7808 23.6814 12.7909 23.6849L12.7921 23.6854C12.7938 23.686 12.7953 23.6869 12.797 23.6875C12.7991 23.6882 12.8012 23.689 12.8033 23.6897L12.8057 23.6903C12.8084 23.6912 12.8112 23.6915 12.8138 23.6923L12.817 23.693C12.8311 23.6973 12.8457 23.7004 12.8603 23.7036C12.866 23.7049 12.8715 23.7067 12.8772 23.7078L12.8797 23.7084C12.8816 23.7087 12.8833 23.7094 12.8853 23.7097C12.8883 23.7102 12.8913 23.7112 12.8945 23.7117C12.897 23.712 12.8995 23.7119 12.902 23.7123L12.9033 23.7123H12.9037C12.9313 23.7163 12.9594 23.7191 12.988 23.7191H12.989C13.0176 23.7191 13.0457 23.7163 13.0735 23.7123H13.0738L13.0751 23.7123C13.0776 23.7119 13.0802 23.712 13.0827 23.7117C13.0859 23.7111 13.0889 23.7102 13.092 23.7097C13.0939 23.7094 13.0956 23.7087 13.0975 23.7084L13.0999 23.7078C13.1057 23.7066 13.1114 23.7048 13.1172 23.7035C13.1316 23.7004 13.146 23.6973 13.16 23.6931L13.1629 23.6924C13.1657 23.6916 13.1685 23.6912 13.1713 23.6904C13.1721 23.6901 13.173 23.69 13.1739 23.6898C13.176 23.6891 13.1782 23.6882 13.1803 23.6875C13.1819 23.6869 13.1834 23.686 13.1851 23.6854L13.1863 23.6849C13.197 23.6812 13.207 23.6762 13.2175 23.6719C13.2272 23.6679 13.2371 23.6643 13.2465 23.6597C13.2488 23.6586 13.2513 23.6579 13.2536 23.6568L13.2564 23.6556C13.2577 23.655 13.259 23.6546 13.2603 23.654C13.262 23.6531 13.2637 23.652 13.2653 23.6512L13.2654 23.6511C13.2682 23.6497 13.2707 23.6476 13.2734 23.6461C13.2928 23.6356 13.3116 23.6241 13.3297 23.6116C13.3311 23.6106 13.3327 23.6099 13.3342 23.6088L13.3354 23.6081C13.3372 23.6068 13.3392 23.6059 13.3409 23.6047L25.079 15.0663C25.3394 14.8771 25.5332 14.6102 25.6324 14.3038C25.7316 13.9974 25.7311 13.6674 25.6311 13.3613ZM20.5797 1.67271L22.8818 8.76905H18.2778L20.5797 1.67271ZM22.4787 9.96902L21.5393 11.1741L14.6111 20.0624L17.8884 9.96895H22.4787V9.96902ZM12.4187 23.3047C12.4187 23.3047 12.4187 23.3047 12.4187 23.3047C12.4193 23.3065 12.4203 23.3082 12.4209 23.3101C12.4203 23.3082 12.4193 23.3065 12.4187 23.3047ZM11.3676 20.063L3.50436 9.96902H8.09497L11.3676 20.063ZM5.39903 1.67263L7.70529 8.76905H3.10117L5.39903 1.67263ZM1.60443 14.0958C1.54901 14.0555 1.50779 13.9985 1.48672 13.9332C1.46565 13.8679 1.4658 13.7976 1.48715 13.7324L2.49755 10.6277L9.90118 20.1317L1.60443 14.0958ZM12.6157 23.5889C12.6133 23.587 12.6111 23.585 12.6088 23.583L12.6074 23.5818C12.6029 23.578 12.5985 23.5742 12.5941 23.5703C12.5855 23.5629 12.5772 23.5552 12.5691 23.5473L12.5712 23.549L12.574 23.5513C12.5912 23.5678 12.6093 23.5833 12.6282 23.5975L12.6288 23.5981C12.6297 23.5987 12.6304 23.5996 12.6313 23.6003C12.6261 23.5966 12.6207 23.5929 12.6157 23.5889ZM12.9889 21.1774L11.0632 15.2378L9.35489 9.96902H16.6282L12.9889 21.1774ZM13.383 23.5702C13.3785 23.5741 13.3742 23.578 13.3696 23.5818L13.368 23.5832C13.3657 23.5851 13.3635 23.5871 13.3612 23.589C13.3563 23.593 13.3509 23.5966 13.3457 23.6004C13.3466 23.5997 13.3474 23.5988 13.3483 23.5982L13.3488 23.5978C13.3677 23.5835 13.3857 23.5681 13.4027 23.5517C13.4034 23.551 13.4042 23.5505 13.4049 23.5499C13.4058 23.5491 13.4068 23.5484 13.4076 23.5476C13.3996 23.5553 13.3914 23.5629 13.383 23.5702ZM24.3744 14.0957L16.0789 20.1298L23.4849 10.6285L24.4913 13.7318C24.5127 13.797 24.513 13.8674 24.492 13.9328C24.471 13.9982 24.4298 14.0552 24.3744 14.0957Z" fill="#231F20"/>
<path d="M54.0107 5.89099H52.3748L52.3823 18.1003H59.0083V16.5901H54.0182L54.0107 5.89099Z" fill="#231F20"/>
<path d="M65.3136 15.9578C64.9009 16.3861 64.2181 16.8144 63.2876 16.8144C62.0419 16.8144 61.5391 16.1983 61.5391 15.3943C61.5391 14.1847 62.3796 13.6061 64.1655 13.6061C64.5032 13.6061 65.0435 13.6437 65.3211 13.6963V15.9578H65.3136ZM63.6177 8.55713C62.297 8.55713 61.0814 9.02296 60.1359 9.81187L60.7137 10.8187C61.3816 10.428 62.1995 10.0373 63.3776 10.0373C64.7208 10.0373 65.3136 10.7285 65.3136 11.8856V12.4791C65.051 12.4265 64.5107 12.389 64.1805 12.389C61.314 12.389 59.8582 13.3958 59.8582 15.4995C59.8582 17.3854 61.0139 18.3321 62.7623 18.3321C63.9404 18.3321 65.0735 17.7911 65.4637 16.912L65.7639 18.1067H66.9195V11.8555C66.912 9.87949 66.0565 8.55713 63.6177 8.55713Z" fill="#231F20"/>
<path d="M72.1978 16.8703C71.5825 16.8703 71.0422 16.7952 70.637 16.6073V10.9647C71.1923 10.4989 71.8826 10.1608 72.7606 10.1608C74.3439 10.1608 74.9518 11.2803 74.9518 13.091C74.9518 15.6606 73.9687 16.8703 72.1978 16.8703ZM72.8882 8.56045C71.4249 8.56045 70.637 9.55974 70.637 9.55974V7.98192L70.6295 5.89319H69.0311L69.0386 17.802C69.8416 18.1401 70.9371 18.3204 72.1303 18.3204C75.1844 18.3204 76.6552 16.3669 76.6552 12.9934C76.6477 10.3261 75.2894 8.56045 72.8882 8.56045Z" fill="#231F20"/>
<path d="M36.1994 7.21561C37.6477 7.21561 38.5857 7.69647 39.1935 8.18484L39.8989 6.96016C38.9459 6.11865 37.6552 5.66785 36.2745 5.66785C32.7927 5.66785 30.3539 7.79415 30.3539 12.0843C30.3539 16.5773 32.9878 18.328 35.9968 18.328C37.5051 18.328 38.7883 17.9748 39.6287 17.6217L39.5912 12.8206V11.3104H35.1264V12.8206H37.9779L38.0154 16.4646C37.6402 16.6525 36.9949 16.8027 36.1169 16.8027C33.7006 16.8027 32.0798 15.2775 32.0798 12.0693C32.0723 8.80095 33.7457 7.21561 36.1994 7.21561Z" fill="#231F20"/>
<path d="M47.7201 5.88928H46.1217L46.1292 7.94045V15.0256C46.1292 17.0016 46.9847 18.324 49.4235 18.324C49.7611 18.324 50.0913 18.2939 50.4065 18.2338V16.7988C50.1739 16.8363 49.9262 16.8514 49.6636 16.8514C48.3204 16.8514 47.7276 16.1601 47.7276 15.0031V10.1193H50.4065V8.78195H47.7276L47.7201 5.88928Z" fill="#231F20"/>
<path d="M42.0569 18.1003H43.6552V8.78369H42.0569V18.1003Z" fill="#231F20"/>
<path d="M42.0569 7.49892H43.6552V5.89856H42.0569V7.49892Z" fill="#231F20"/>
</svg>
