<svg width="86" height="29" viewBox="0 0 86 29" fill="none" xmlns="http://www.w3.org/2000/svg">
<g clip-path="url(#clip0_0_766)">
<path d="M36.5974 14.872C36.5974 18.8973 33.4388 21.8635 29.5625 21.8635C25.6862 21.8635 22.5276 18.8973 22.5276 14.872C22.5276 10.8183 25.6862 7.88049 29.5625 7.88049C33.4388 7.88049 36.5974 10.8183 36.5974 14.872ZM33.5179 14.872C33.5179 12.3566 31.6872 10.6355 29.5625 10.6355C27.4378 10.6355 25.6071 12.3566 25.6071 14.872C25.6071 17.3622 27.4378 19.1085 29.5625 19.1085C31.6872 19.1085 33.5179 17.3591 33.5179 14.872Z" fill="#EA4335"/>
<path d="M51.7739 14.872C51.7739 18.8973 48.6153 21.8635 44.739 21.8635C40.8626 21.8635 37.704 18.8973 37.704 14.872C37.704 10.8215 40.8626 7.88049 44.739 7.88049C48.6153 7.88049 51.7739 10.8183 51.7739 14.872ZM48.6943 14.872C48.6943 12.3566 46.8637 10.6355 44.739 10.6355C42.6143 10.6355 40.7836 12.3566 40.7836 14.872C40.7836 17.3622 42.6143 19.1085 44.739 19.1085C46.8637 19.1085 48.6943 17.3591 48.6943 14.872Z" fill="#FBBC05"/>
<path d="M66.318 8.30288V20.8548C66.318 26.0181 63.2637 28.1269 59.653 28.1269C56.2541 28.1269 54.2084 25.8605 53.437 24.007L56.1182 22.8943C56.5956 24.0322 57.7654 25.3751 59.6498 25.3751C61.9611 25.3751 63.3934 23.9534 63.3934 21.2772V20.2717H63.2859C62.5966 21.1196 61.2687 21.8604 59.5929 21.8604C56.0865 21.8604 52.8742 18.8154 52.8742 14.8972C52.8742 10.9507 56.0865 7.88049 59.5929 7.88049C61.2655 7.88049 62.5935 8.62125 63.2859 9.44397H63.3934V8.30604H66.318V8.30288ZM63.6115 14.8972C63.6115 12.4354 61.9643 10.6355 59.868 10.6355C57.7433 10.6355 55.9632 12.4354 55.9632 14.8972C55.9632 17.3339 57.7433 19.1085 59.868 19.1085C61.9643 19.1085 63.6115 17.3339 63.6115 14.8972Z" fill="#4285F4"/>
<path d="M71.1397 0.945679V21.4348H68.136V0.945679H71.1397Z" fill="#34A853"/>
<path d="M82.8445 17.1731L85.2348 18.7618C84.4634 19.8997 82.6043 21.8604 79.3919 21.8604C75.4081 21.8604 72.4329 18.7901 72.4329 14.8688C72.4329 10.7111 75.4334 7.87732 79.0473 7.87732C82.6865 7.87732 84.4665 10.7647 85.0483 12.325L85.3676 13.1194L75.993 16.9903C76.7107 18.393 77.8268 19.1085 79.3919 19.1085C80.9601 19.1085 82.0478 18.3394 82.8445 17.1731ZM75.4871 14.6576L81.7537 12.0634C81.4091 11.1903 80.372 10.5819 79.1516 10.5819C77.5865 10.5819 75.4081 11.9594 75.4871 14.6576Z" fill="#EA4335"/>
<path d="M11.1579 13.0532V10.087H21.1838C21.2818 10.604 21.3324 11.2155 21.3324 11.8774C21.3324 14.1029 20.7222 16.8547 18.7556 18.8154C16.8427 20.8012 14.3987 21.8604 11.161 21.8604C5.16 21.8604 0.113823 16.9871 0.113823 11.0043C0.113823 5.02145 5.16 0.148193 11.161 0.148193C14.4809 0.148193 16.8459 1.44689 18.6228 3.13961L16.5234 5.23265C15.2492 4.04113 13.5229 3.11439 11.1579 3.11439C6.77566 3.11439 3.34831 6.63537 3.34831 11.0043C3.34831 15.3732 6.77566 18.8942 11.1579 18.8942C14.0003 18.8942 15.6191 17.7562 16.6562 16.7223C17.4972 15.8838 18.0505 14.686 18.2687 13.05L11.1579 13.0532Z" fill="#4285F4"/>
</g>
<defs>
<clipPath id="clip0_0_766">
<rect width="86" height="29" fill="white"/>
</clipPath>
</defs>
</svg>
