<svg width="96" height="22" viewBox="0 0 96 22" fill="none" xmlns="http://www.w3.org/2000/svg">
<path d="M40.0404 8.88274C40.2751 9.84937 40.8624 10.382 41.6167 10.382H42.5501C43.3257 10.382 43.8693 9.88355 44.1225 8.88404L46.3021 0.466102H48.7534L46.4479 9.30093C45.8818 11.484 44.7085 12.565 42.8855 12.565H41.2813C39.4583 12.565 38.2757 11.4761 37.7096 9.2931L40.0404 8.88274ZM12.8294 3.74138C12.8294 3.448 12.7047 3.19693 12.4343 2.96812C12.1625 2.73662 11.892 2.63149 11.5791 2.63149H2.57831V10.4392H11.5791C12.413 10.4392 12.8293 10.0843 12.8293 9.35032L12.8294 3.74138ZM14.1008 11.7161C13.4127 12.3238 12.5576 12.6367 11.5791 12.6367H0.307259V0.454956H11.5791C12.4966 0.454956 13.308 0.769213 14.0372 1.4176C14.7663 2.06725 15.1203 2.84185 15.1203 3.74138V9.35029C15.1203 10.3142 14.7875 11.1086 14.1008 11.7161ZM0.421281 15.872H3.99295V16.4164H2.50408V20.1145H1.88624V16.4164H0.421318L0.421281 15.872ZM4.47222 15.872H5.02775V17.6789C5.26109 17.396 5.55141 17.2554 5.89746 17.2554C6.08571 17.2554 6.25411 17.3013 6.40391 17.3948C6.55235 17.488 6.66378 17.617 6.73669 17.7828C6.8096 17.9472 6.84542 18.1918 6.84542 18.5166V20.1145H6.28985V18.3799C6.28985 18.1749 6.23814 18.0105 6.13738 17.8854C6.03531 17.7605 5.90141 17.6975 5.73567 17.6975C5.61241 17.6975 5.49703 17.7273 5.38831 17.7922C5.27958 17.8552 5.15895 17.9592 5.02771 18.1053V20.1148H4.47218L4.47222 15.872ZM8.02814 18.428H9.44541C9.43226 18.2069 9.36454 18.0361 9.24653 17.9164C9.12852 17.7967 8.96944 17.7364 8.76925 17.7364C8.56905 17.7364 8.40467 17.7967 8.27734 17.9164C8.15005 18.0361 8.06655 18.2072 8.0281 18.428H8.02814ZM9.99425 18.762H8.01221C8.02686 19.0304 8.11695 19.2433 8.284 19.4024C8.44973 19.5601 8.66582 19.6406 8.92964 19.6406C9.29689 19.6406 9.63629 19.5262 9.94652 19.2988V19.838C9.77553 19.951 9.60581 20.0315 9.43744 20.0799C9.26908 20.1284 9.0702 20.1523 8.84479 20.1523C8.53324 20.1523 8.28268 20.0893 8.09045 19.9614C7.89822 19.8324 7.74444 19.6617 7.62906 19.4446C7.51373 19.2287 7.45672 18.979 7.45672 18.6949C7.45672 18.2688 7.57735 17.9217 7.81998 17.6547C8.06392 17.3878 8.37814 17.2549 8.76658 17.2549C9.14044 17.2549 9.43741 17.385 9.66015 17.6455C9.8829 17.9061 9.99425 18.2544 9.99425 18.6923V18.762ZM14.5223 16.3847C14.0423 16.3847 13.6459 16.5387 13.3317 16.8463C13.0188 17.1538 12.8624 17.542 12.8624 18.0102C12.8624 18.4652 13.0201 18.8439 13.3357 19.1478C13.6499 19.4501 14.0463 19.6014 14.5223 19.6014C14.9916 19.6014 15.388 19.4464 15.7088 19.1359C16.031 18.8269 16.1914 18.4455 16.1914 17.9917C16.1914 17.5275 16.0336 17.1435 15.7181 16.8397C15.4026 16.5359 15.0035 16.3847 14.5223 16.3847ZM16.7243 20.3773L16.1105 20.9757C15.9183 20.9683 15.7181 20.9325 15.5099 20.8743C15.3017 20.8166 15.0897 20.7364 14.8749 20.635C14.6601 20.5336 14.3737 20.3588 14.0158 20.1142C13.4974 20.021 13.0691 19.7761 12.7324 19.3791C12.3956 18.9819 12.2286 18.5243 12.2286 18.0061C12.2286 17.3723 12.4447 16.8475 12.8782 16.4319C13.3118 16.0177 13.8606 15.8099 14.5248 15.8099C15.1851 15.8099 15.7326 16.0164 16.1702 16.428C16.6077 16.8396 16.8251 17.3578 16.8251 17.9811C16.8251 18.5059 16.6607 18.9661 16.3292 19.3633C15.9991 19.7605 15.5709 20.0103 15.0472 20.1142L15.209 20.1746C15.7114 20.3666 16.0747 20.4624 16.2961 20.4624C16.4181 20.4624 16.5613 20.4363 16.7243 20.377V20.3773ZM19.3276 20.1138V19.7559C19.2082 19.8834 19.073 19.9833 18.9192 20.0545C18.7667 20.1243 18.6143 20.1597 18.4618 20.1597C18.2829 20.1597 18.1185 20.1164 17.9673 20.0281C17.8175 19.9401 17.7035 19.8204 17.6252 19.6691C17.5483 19.5192 17.5099 19.268 17.5099 18.9182V17.3164H18.0667V18.9116C18.0667 19.2061 18.1092 19.4114 18.1953 19.5271C18.2802 19.6442 18.43 19.7019 18.6448 19.7019C18.9126 19.7019 19.1406 19.573 19.3276 19.3153V17.3163H19.8831V20.1136L19.3276 20.1138ZM21.9306 19.5562V18.7238L21.5581 18.8673C21.3685 18.9422 21.2346 19.0172 21.155 19.0936C21.0769 19.17 21.0384 19.2647 21.0384 19.3791C21.0384 19.4947 21.0756 19.5894 21.1497 19.6632C21.224 19.7355 21.3195 19.7724 21.4388 19.7724C21.6151 19.7724 21.7795 19.7001 21.9306 19.5566L21.9306 19.5562ZM22.4795 18.4256V19.6144C22.4795 19.7091 22.5115 19.7564 22.5776 19.7564C22.6453 19.7564 22.75 19.708 22.8945 19.6092V19.9484C22.7686 20.0274 22.6665 20.0811 22.5909 20.1102C22.514 20.14 22.4344 20.1534 22.3509 20.1534C22.1136 20.1534 21.9731 20.0614 21.9306 19.8787C21.6933 20.0614 21.4401 20.1534 21.171 20.1534C20.9734 20.1534 20.8103 20.089 20.6791 19.96C20.5479 19.831 20.4816 19.6692 20.4816 19.4747C20.4816 19.2984 20.5452 19.1407 20.6725 19.0013C20.8011 18.8634 20.9814 18.7526 21.2174 18.6714L21.9306 18.4279V18.2781C21.9306 17.9374 21.7609 17.7678 21.4229 17.7678C21.1193 17.7678 20.8236 17.9229 20.5359 18.2334V17.6324C20.752 17.3811 21.0636 17.2549 21.4693 17.2549C21.7729 17.2549 22.0169 17.334 22.2011 17.4917C22.2621 17.5431 22.3165 17.6098 22.3655 17.6941C22.4145 17.7783 22.4464 17.8626 22.4583 17.9465C22.4715 18.0307 22.4794 18.1899 22.4794 18.4251L22.4795 18.4256ZM23.9293 17.317V17.6589C24.1785 17.3893 24.4609 17.2551 24.7778 17.2551C24.9528 17.2551 25.1171 17.2999 25.2683 17.3904C25.4194 17.481 25.5334 17.6048 25.613 17.7625C25.6912 17.9191 25.731 18.1689 25.731 18.5108V20.1139H25.1742V18.5134C25.1742 18.2253 25.1304 18.0203 25.0429 17.898C24.9541 17.7742 24.8069 17.7127 24.6014 17.7127C24.3376 17.7127 24.1135 17.8428 23.9292 18.1019V20.114H23.3578V17.3168L23.9293 17.317ZM26.0985 17.7593L27.1485 16.7349V17.3174H28.0408V17.8145H27.1485V19.1835C27.1485 19.503 27.2811 19.6635 27.5489 19.6635C27.7491 19.6635 27.9599 19.599 28.1827 19.4689V19.9818C27.9679 20.1015 27.7345 20.1608 27.4813 20.1608C27.2268 20.1608 27.0146 20.0873 26.8463 19.9386C26.7948 19.8954 26.7502 19.8449 26.7137 19.7887C26.6791 19.7321 26.65 19.6597 26.6275 19.5691C26.6038 19.4797 26.5918 19.3075 26.5918 19.055V17.8148H26.0986L26.0985 17.7593ZM30.3963 20.1138V19.7559C30.277 19.8834 30.1418 19.9833 29.988 20.0545C29.8355 20.1243 29.6831 20.1597 29.5306 20.1597C29.3516 20.1597 29.1872 20.1164 29.0361 20.0281C28.8849 19.9401 28.7709 19.8204 28.694 19.6691C28.6171 19.5192 28.5787 19.268 28.5787 18.9182V17.3164H29.1355V18.9116C29.1355 19.2061 29.1779 19.4114 29.2641 19.5271C29.349 19.6442 29.4988 19.7019 29.7135 19.7019C29.9813 19.7019 30.2094 19.573 30.3963 19.3153V17.3163H30.9518V20.1136L30.3963 20.1138ZM34.0281 18.0841V20.1133H33.4646V18.5496C33.4646 18.238 33.4221 18.021 33.3387 17.8974C33.2551 17.7751 33.1093 17.7132 32.9012 17.7132C32.7858 17.7132 32.6784 17.7393 32.5816 17.7948C32.4849 17.85 32.3748 17.9462 32.2502 18.0841V20.1133H31.6947V17.3175H32.2502V17.6858C32.5339 17.3991 32.8124 17.2544 33.0841 17.2544C33.4408 17.2544 33.7178 17.4266 33.9141 17.7686C34.211 17.4267 34.5213 17.2544 34.8448 17.2544C35.1179 17.2544 35.342 17.3543 35.5183 17.553C35.6946 17.7517 35.7821 18.0553 35.7821 18.463V20.1135H35.2266V18.4512C35.2266 18.2186 35.1789 18.0396 35.0834 17.9146C34.9879 17.7909 34.8501 17.7293 34.6711 17.7293C34.4417 17.7293 34.227 17.8479 34.0281 18.0842V18.0841ZM42.065 19.1272V19.7953C41.6155 20.0387 41.0972 20.161 40.5085 20.161C40.0312 20.161 39.6255 20.0648 39.2927 19.8743C38.96 19.6835 38.6962 19.4219 38.5026 19.0879C38.3091 18.7524 38.211 18.3909 38.211 18.0016C38.211 17.3836 38.4337 16.8641 38.8778 16.4419C39.3219 16.0211 39.8695 15.8094 40.5205 15.8094C40.9699 15.8094 41.4684 15.9264 42.0186 16.159V16.8126C41.5175 16.5275 41.0296 16.3852 40.5509 16.3852C40.0617 16.3852 39.6547 16.5377 39.3312 16.8455C39.0077 17.1531 38.846 17.5386 38.846 18.0002C38.846 18.4671 39.0051 18.8511 39.3233 19.1509C39.6428 19.4506 40.0498 19.6006 40.5456 19.6006C41.064 19.6006 41.5705 19.443 42.065 19.1272L42.065 19.1272ZM44.0195 17.8065C43.753 17.8065 43.5356 17.8933 43.3645 18.0682C43.1935 18.2419 43.1086 18.4627 43.1086 18.7323C43.1086 18.9992 43.1961 19.2176 43.3712 19.3859C43.5448 19.5555 43.7702 19.6398 44.0433 19.6398C44.3164 19.6398 44.5392 19.5544 44.7129 19.3833C44.8865 19.2122 44.9727 18.9941 44.9727 18.7258C44.9727 18.4615 44.8825 18.2418 44.7022 18.0682C44.5206 17.8934 44.2939 17.8065 44.0194 17.8065L44.0195 17.8065ZM44.0488 17.3094C44.4757 17.3094 44.831 17.4462 45.1134 17.721C45.3957 17.9958 45.5363 18.3405 45.5363 18.756C45.5363 19.1598 45.3931 19.4938 45.1067 19.7608C44.8203 20.0277 44.4597 20.1605 44.0235 20.1605C43.6033 20.1605 43.2519 20.0252 42.9696 19.7542C42.6858 19.4847 42.5453 19.1466 42.5453 18.7415C42.5453 18.3312 42.6872 17.9906 42.9735 17.7184C43.2586 17.4463 43.6178 17.3094 44.0487 17.3094L44.0488 17.3094ZM48.4628 18.0841V20.1133H47.8994V18.5496C47.8994 18.238 47.857 18.021 47.7735 17.8974C47.6899 17.7751 47.5441 17.7132 47.336 17.7132C47.2206 17.7132 47.1132 17.7393 47.0164 17.7948C46.9197 17.85 46.8096 17.9462 46.685 18.0841V20.1133H46.1295V17.3175H46.685V17.6858C46.9687 17.3991 47.2471 17.2544 47.5189 17.2544C47.8756 17.2544 48.1526 17.4266 48.3489 17.7686C48.6458 17.4267 48.9561 17.2544 49.2796 17.2544C49.5527 17.2544 49.7768 17.3543 49.9531 17.553C50.1294 17.7517 50.2169 18.0553 50.2169 18.463V20.1135H49.6614V18.4512C49.6614 18.2186 49.6137 18.0396 49.5182 17.9146C49.4227 17.7909 49.2849 17.7293 49.1059 17.7293C48.8765 17.7293 48.6618 17.8479 48.4629 18.0842L48.4628 18.0841ZM51.9444 17.8376H51.5506V19.5524C51.7216 19.6419 51.9006 19.6866 52.0876 19.6866C52.3488 19.6866 52.5609 19.5971 52.728 19.4171C52.8937 19.237 52.9758 19.0041 52.9758 18.7214C52.9758 18.5387 52.9374 18.3781 52.8578 18.2388C52.7797 18.0993 52.6735 17.9968 52.5383 17.9338C52.4031 17.8693 52.2042 17.8376 51.9444 17.8376V17.8376ZM50.9792 21.5436V17.3169H51.955C52.4548 17.3169 52.8433 17.4406 53.1217 17.6878C53.4001 17.9349 53.5406 18.2796 53.5406 18.7241C53.5406 19.1436 53.4094 19.4868 53.1469 19.7564C52.8857 20.026 52.5516 20.1602 52.1459 20.1602C51.9669 20.1602 51.7681 20.1207 51.5506 20.042V21.5439L50.9792 21.5436ZM55.9382 20.1138V19.7559C55.8189 19.8834 55.6837 19.9833 55.5298 20.0545C55.3774 20.1243 55.2249 20.1597 55.0725 20.1597C54.8935 20.1597 54.7291 20.1164 54.5779 20.0281C54.4281 19.9401 54.3141 19.8204 54.2372 19.6691C54.1603 19.5192 54.1206 19.268 54.1206 18.9182V17.3164H54.6774V18.9116C54.6774 19.2061 54.7199 19.4114 54.806 19.5271C54.8909 19.6442 55.0406 19.7019 55.2555 19.7019C55.5232 19.7019 55.7513 19.573 55.9382 19.3153V17.3163H56.4937V20.1136L55.9382 20.1138ZM56.8913 17.7593L57.9413 16.7349V17.3174H58.8336V17.8145H57.9413V19.1835C57.9413 19.503 58.0739 19.6635 58.3417 19.6635C58.5419 19.6635 58.7527 19.599 58.9755 19.4689V19.9818C58.7607 20.1015 58.5273 20.1608 58.2754 20.1608C58.0195 20.1608 57.8074 20.0873 57.6391 19.9386C57.5876 19.8954 57.543 19.8449 57.5065 19.7887C57.4719 19.7321 57.4429 19.6597 57.4203 19.5691C57.3966 19.4797 57.3846 19.3075 57.3846 19.055V17.8148H56.8914L56.8913 17.7593ZM59.4199 17.3174H59.9754V20.1146H59.4199V17.3174ZM59.6983 16.1443C59.7897 16.1443 59.868 16.1742 59.9329 16.2375C59.9992 16.3005 60.031 16.377 60.031 16.469C60.031 16.557 59.9991 16.6346 59.9329 16.699C59.8679 16.7635 59.7897 16.7963 59.6983 16.7963C59.6121 16.7963 59.5365 16.7628 59.4715 16.6976C59.4052 16.6319 59.3734 16.5555 59.3734 16.4687C59.3734 16.3833 59.4054 16.3084 59.4715 16.2424C59.5365 16.1768 59.6121 16.144 59.6983 16.144V16.1443ZM61.3298 17.317V17.6589C61.579 17.3893 61.8614 17.2551 62.1783 17.2551C62.3533 17.2551 62.5177 17.2999 62.6688 17.3904C62.82 17.481 62.934 17.6048 63.0135 17.7625C63.0917 17.9191 63.1315 18.1689 63.1315 18.5108V20.1139H62.5747V18.5134C62.5747 18.2253 62.531 18.0203 62.4434 17.898C62.3559 17.7742 62.2074 17.7127 62.0019 17.7127C61.7381 17.7127 61.5141 17.8428 61.3298 18.1019V20.114H60.7584V17.3168L61.3298 17.317ZM64.7782 17.7986C64.627 17.7986 64.4984 17.85 64.3911 17.951C64.285 18.0524 64.2319 18.1747 64.2319 18.3167C64.2319 18.4614 64.2837 18.5799 64.3884 18.6746C64.4931 18.7693 64.6244 18.8166 64.7848 18.8166C64.9413 18.8166 65.0725 18.7682 65.1786 18.672C65.2833 18.5747 65.3363 18.455 65.3363 18.3104C65.3363 18.1643 65.2833 18.042 65.1773 17.9447C65.0712 17.8474 64.9373 17.7986 64.7782 17.7986H64.7782ZM64.6443 20.2486C64.456 20.2486 64.3036 20.2881 64.1842 20.3668C64.0649 20.4458 64.0053 20.5468 64.0053 20.6706C64.0053 20.9572 64.2665 21.1006 64.7875 21.1006C65.0341 21.1006 65.225 21.0633 65.3602 20.9928C65.4955 20.9205 65.5631 20.8191 65.5631 20.6875C65.5631 20.5586 65.4782 20.4534 65.3071 20.3707C65.1362 20.289 64.9148 20.2484 64.6443 20.2484V20.2486ZM63.7308 18.285C63.7308 17.9864 63.8409 17.751 64.0596 17.5774C64.2797 17.4037 64.5793 17.3169 64.9585 17.3169H66.1199V17.7522H65.5511C65.6612 17.8625 65.7381 17.9639 65.7818 18.056C65.8243 18.1466 65.8454 18.2521 65.8454 18.3691C65.8454 18.5153 65.803 18.6584 65.7195 18.7991C65.6359 18.9397 65.5286 19.0478 65.396 19.1227C65.2647 19.1976 65.0486 19.258 64.7477 19.3028C64.5342 19.3326 64.4282 19.4053 64.4282 19.5186C64.4282 19.5831 64.4666 19.6368 64.5462 19.6778C64.6244 19.7199 64.7662 19.7631 64.9731 19.8068C65.3178 19.8832 65.5405 19.941 65.6399 19.9842C65.7394 20.0263 65.8282 20.0867 65.909 20.1658C66.0443 20.3 66.112 20.4681 66.112 20.6708C66.112 20.9366 65.9925 21.1481 65.7553 21.306C65.518 21.4637 65.1999 21.5427 64.8021 21.5427C64.4004 21.5427 64.0795 21.4637 63.8396 21.3045C63.6009 21.1453 63.4803 20.9325 63.4803 20.664C63.4803 20.2852 63.715 20.0419 64.1843 19.9315C63.9974 19.8118 63.9032 19.6933 63.9032 19.5766C63.9032 19.4871 63.943 19.4055 64.0252 19.3332C64.1048 19.2597 64.2148 19.2068 64.3513 19.1714C63.9377 18.9887 63.7309 18.694 63.7309 18.285L63.7308 18.285ZM72.0598 19.1272V19.7953C71.6103 20.0387 71.0919 20.161 70.5033 20.161C70.026 20.161 69.6203 20.0648 69.2875 19.8743C68.9546 19.6835 68.6909 19.4219 68.4974 19.0879C68.3024 18.7524 68.2069 18.3909 68.2069 18.0016C68.2069 17.3836 68.4283 16.8641 68.8725 16.4419C69.3166 16.0211 69.8641 15.8094 70.5151 15.8094C70.9645 15.8094 71.463 15.9264 72.0119 16.159V16.8126C71.5121 16.5275 71.0242 16.3852 70.5456 16.3852C70.0564 16.3852 69.6493 16.5377 69.3258 16.8455C69.0023 17.1531 68.8407 17.5386 68.8407 18.0002C68.8407 18.4671 68.9996 18.8511 69.318 19.1509C69.6374 19.4506 70.0444 19.6006 70.5403 19.6006C71.0586 19.6006 71.5651 19.443 72.0596 19.1272L72.0598 19.1272ZM74.014 17.8065C73.7476 17.8065 73.5301 17.8933 73.3591 18.0682C73.1881 18.2419 73.1032 18.4627 73.1032 18.7323C73.1032 18.9992 73.1907 19.2176 73.3658 19.3859C73.5395 19.5555 73.765 19.6398 74.038 19.6398C74.3112 19.6398 74.5339 19.5544 74.7075 19.3833C74.8812 19.2122 74.9672 18.9941 74.9672 18.7258C74.9672 18.4615 74.877 18.2418 74.6966 18.0682C74.5151 17.8934 74.2883 17.8065 74.0139 17.8065L74.014 17.8065ZM74.0439 17.3094C74.4709 17.3094 74.8261 17.4462 75.1085 17.721C75.3908 17.9958 75.5315 18.3405 75.5315 18.756C75.5315 19.1598 75.3883 19.4938 75.1019 19.7608C74.8156 20.0277 74.4549 20.1605 74.0188 20.1605C73.5985 20.1605 73.2471 20.0252 72.9647 19.7542C72.681 19.4847 72.5405 19.1466 72.5405 18.7415C72.5405 18.3312 72.6825 17.9906 72.9687 17.7184C73.2536 17.4463 73.6131 17.3094 74.0439 17.3094V17.3094ZM78.4575 18.0841V20.1133H77.8941V18.5496C77.8941 18.238 77.8516 18.021 77.7682 17.8974C77.6847 17.7751 77.5389 17.7132 77.3307 17.7132C77.2153 17.7132 77.1078 17.7393 77.0112 17.7948C76.9143 17.85 76.8045 17.9462 76.6797 18.0841V20.1133H76.1229V17.3175H76.6797V17.6858C76.9635 17.3991 77.2419 17.2544 77.5137 17.2544C77.8703 17.2544 78.1474 17.4266 78.3436 17.7686C78.6405 17.4267 78.9508 17.2544 79.2756 17.2544C79.5473 17.2544 79.7715 17.3543 79.9478 17.553C80.124 17.7517 80.2116 18.0553 80.2116 18.463V20.1135H79.6562V18.4512C79.6562 18.2186 79.6084 18.0396 79.513 17.9146C79.4175 17.7909 79.2796 17.7293 79.1006 17.7293C78.8714 17.7293 78.6565 17.8479 78.4576 18.0842L78.4575 18.0841ZM81.939 17.8376H81.5453V19.5524C81.7163 19.6419 81.8952 19.6866 82.0822 19.6866C82.3434 19.6866 82.5555 19.5971 82.7226 19.4171C82.8883 19.237 82.9706 19.0041 82.9706 18.7214C82.9706 18.5387 82.9323 18.3781 82.8526 18.2388C82.7745 18.0993 82.6685 17.9968 82.5332 17.9338C82.3979 17.8693 82.1991 17.8376 81.9392 17.8376L81.939 17.8376ZM80.9741 21.5436V17.3169H81.9498C82.4497 17.3169 82.8381 17.4406 83.1179 17.6878C83.3948 17.9349 83.5341 18.2796 83.5341 18.7241C83.5341 19.1436 83.4041 19.4868 83.1417 19.7564C82.8805 20.026 82.5464 20.1602 82.1407 20.1602C81.9618 20.1602 81.7629 20.1207 81.5455 20.042V21.5439L80.9741 21.5436ZM85.396 19.5562V18.7238L85.0236 18.8673C84.8327 18.9422 84.6989 19.0172 84.6206 19.0936C84.5424 19.17 84.5026 19.2647 84.5026 19.3791C84.5026 19.4947 84.5402 19.5894 84.6153 19.6632C84.6897 19.7355 84.7852 19.7724 84.9043 19.7724C85.0806 19.7724 85.2452 19.7001 85.3962 19.5566L85.396 19.5562ZM85.9438 18.4256V19.6144C85.9438 19.7091 85.9776 19.7564 86.0434 19.7564C86.111 19.7564 86.2159 19.708 86.3602 19.6092V19.9484C86.2328 20.0274 86.132 20.0811 86.0565 20.1102C85.9795 20.14 85.9002 20.1534 85.8164 20.1534C85.5792 20.1534 85.4385 20.0614 85.3961 19.8787C85.1574 20.0614 84.9055 20.1534 84.6364 20.1534C84.4387 20.1534 84.2756 20.089 84.1445 19.96C84.0119 19.831 83.9469 19.6692 83.9469 19.4747C83.9469 19.2984 84.0104 19.1407 84.1378 19.0013C84.2663 18.8634 84.4467 18.7526 84.6827 18.6714L85.396 18.4279V18.2781C85.396 17.9374 85.2261 17.7678 84.8882 17.7678C84.5845 17.7678 84.2889 17.9229 84.0013 18.2334V17.6324C84.2174 17.3811 84.5289 17.2549 84.9346 17.2549C85.2382 17.2549 85.4821 17.334 85.6664 17.4917C85.7273 17.5431 85.7818 17.6098 85.8307 17.6941C85.8795 17.7783 85.9103 17.8626 85.9235 17.9465C85.9385 18.0307 85.9423 18.1899 85.9423 18.4251L85.9438 18.4256ZM87.3944 17.317V17.6589C87.6436 17.3893 87.926 17.2551 88.2429 17.2551C88.418 17.2551 88.5823 17.2999 88.7335 17.3904C88.8845 17.481 88.9984 17.6048 89.0781 17.7625C89.1563 17.9191 89.1961 18.1689 89.1961 18.5108V20.1139H88.6393V18.5134C88.6393 18.2253 88.5957 18.0203 88.5081 17.898C88.4206 17.7742 88.2721 17.7127 88.0667 17.7127C87.8028 17.7127 87.5788 17.8428 87.3945 18.1019V20.114H86.8231V17.3168L87.3944 17.317ZM91.5744 17.317H92.1961L90.2101 21.5437H89.5883L90.5376 19.5237L89.4544 17.317H90.0895L90.8425 18.8912L91.5744 17.317ZM94.3688 18.9796H94.1261V17.3948H94.5172L94.9202 18.6613L95.31 17.3948H95.6931V18.9796H95.4492V17.65L95.0409 18.9796H94.8011L94.369 17.6276L94.3688 18.9796ZM93.4222 18.9796H93.1558V17.6197H92.6374V17.395H93.946V17.6197H93.4223L93.4222 18.9796Z" fill="#1D2329"/>
</svg>
